<?xml version="1.0" encoding="UTF-8"?><!DOCTYPE svg PUBLIC "-//W3C//DTD SVG 1.1//EN" "http://www.w3.org/Graphics/SVG/1.1/DTD/svg11.dtd"><svg xmlns="http://www.w3.org/2000/svg" xmlns:xlink="http://www.w3.org/1999/xlink" version="1.1" id="Layer_1" x="0px" y="0px" width="42px" height="32px" viewBox="0 0 42 32" xml:space="preserve"><path fill="#828282" d="M33.958 12.988C33.531 6.376 28.933 0 20.5 0 12.787 0 6.839 5.733 6.524 13.384 2.304 14.697 0 19.213 0 22.5 0 27.561 4.206 32 9 32h6.5a.5.5 0 0 0 0-1H9c-4.262 0-8-3.972-8-8.5C1 19.449 3.674 14 9 14h1.5a.5.5 0 0 0 0-1H9c-.509 0-.99.057-1.459.139C7.933 7.149 12.486 1 20.5 1 29.088 1 33 7.739 33 14v1.5a.5.5 0 0 0 1 0V14v-.009c3.019.331 7 3.571 7 8.509 0 3.826-3.691 8.5-8 8.5h-7.5c-3.238 0-4.5-1.262-4.5-4.5V12.783l4.078 4.07a.5.5 0 1 0 .708-.706l-4.461-4.452c-.594-.592-1.055-.592-1.648 0l-4.461 4.452a.5.5 0 0 0 .707.707L20 12.783V26.5c0 3.804 1.696 5.5 5.5 5.5H33c4.847 0 9-5.224 9-9.5 0-5.167-4.223-9.208-8.042-9.512z"/><metadata><rdf:RDF xmlns:rdf="http://www.w3.org/1999/02/22-rdf-syntax-ns#" xmlns:rdfs="http://www.w3.org/2000/01/rdf-schema#" xmlns:dc="http://purl.org/dc/elements/1.1/"><rdf:Description about="https://iconscout.com/legal#licenses" dc:title="upload" dc:description="upload" dc:publisher="Iconscout" dc:date="2017-09-21" dc:format="image/svg+xml" dc:language="en"><dc:creator><rdf:Bag><rdf:li>Kenny Sing</rdf:li></rdf:Bag></dc:creator></rdf:Description></rdf:RDF></metadata></svg>